<svg width="500" height="200" viewBox="0 0 500 200" xmlns="http://www.w3.org/2000/svg">
  <defs>
    <linearGradient id="electricGrad" x1="0%" y1="0%" x2="100%" y2="0%">
      <stop offset="0%" style="stop-color:#0D47A1;stop-opacity:1" />
      <stop offset="100%" style="stop-color:#2196F3;stop-opacity:1" />
    </linearGradient>
  </defs>

  <g font-family="Segoe UI, Arial, sans-serif" font-weight="900">
    
    <path d="M40 140 L90 30 L140 140 H115 L105 115 H75 L65 140 Z" fill="url(#electricGrad)" />
    
    <path d="M85 95 L125 95 L110 115 L145 115 L100 160 L110 125 L80 125 Z" fill="#FFD600" />

    <text x="145" y="130" font-size="50" fill="#333" letter-spacing="-2">lexa</text>

    <path d="M200 30 L250 140 L305 30 H280 L250 85 L228 30 Z" fill="url(#electricGrad)" />

    <text x="265" y="130" font-size="50" fill="#333" letter-spacing="-2">olt</text>
    
    <path d="M145 145 H350 M350 145 L360 135 M350 145 L360 155" stroke="#2196F3" stroke-width="4" fill="none" stroke-linecap="round" />
    <circle cx="145" cy="145" r="5" fill="#2196F3" />
  </g>

  <text x="280" y="180" font-family="Arial" font-size="16" fill="#777" text-anchor="middle" font-weight="normal" letter-spacing="3">Autorizat ANRE</text>
</svg>
