<?xml version="1.0" encoding="UTF-8" standalone="no"?>
<!-- Created with Inkscape (http://www.inkscape.org/) -->

<svg
   width="171mm"
   height="161mm"
   viewBox="0 0 171 161"
   version="1.1"
   id="svg1"
   inkscape:version="1.4.3 (fcd0343856, 2026-01-01)"
   sodipodi:docname="sigla.svg"
   xmlns:inkscape="http://www.inkscape.org/namespaces/inkscape"
   xmlns:sodipodi="http://sodipodi.sourceforge.net/DTD/sodipodi-0.dtd"
   xmlns="http://www.w3.org/2000/svg"
   xmlns:svg="http://www.w3.org/2000/svg">
  <sodipodi:namedview
     id="namedview1"
     pagecolor="#ffffff"
     bordercolor="#000000"
     borderopacity="0.25"
     inkscape:showpageshadow="2"
     inkscape:pageopacity="0.0"
     inkscape:pagecheckerboard="0"
     inkscape:deskcolor="#d1d1d1"
     inkscape:document-units="mm"
     inkscape:zoom="1.0116647"
     inkscape:cx="249.0944"
     inkscape:cy="335.58551"
     inkscape:window-width="1854"
     inkscape:window-height="1011"
     inkscape:window-x="1986"
     inkscape:window-y="32"
     inkscape:window-maximized="1"
     inkscape:current-layer="layer1" />
  <defs
     id="defs1" />
  <g
     inkscape:label="Layer 1"
     inkscape:groupmode="layer"
     id="layer1">
    <path
       d="m 23.316694,149.39494 c -1.433013,-0.23327 -2.563099,-0.86406 -2.563099,-1.43067 0,-0.20808 0.14246,-0.69099 0.316577,-1.07314 0.338995,-0.74401 0.370459,-0.74541 2.609464,-0.11575 1.345001,0.37824 2.630209,0.18288 2.630209,-0.39981 0,-0.22803 -0.452588,-0.49597 -1.124479,-0.66571 -3.486682,-0.88087 -4.299479,-1.53324 -4.299479,-3.45089 0,-1.05466 0.136393,-1.42013 0.781148,-2.09311 0.947476,-0.98895 2.472108,-1.44074 4.245935,-1.25818 1.938174,0.19947 2.778125,0.65345 2.778125,1.50151 0,0.38539 -0.167621,0.92995 -0.372491,1.21012 -0.331919,0.45393 -0.47086,0.47385 -1.275556,0.18287 -1.206881,-0.43642 -2.712783,-0.41366 -3.094903,0.0468 -0.382971,0.46145 -0.318944,0.49986 1.964825,1.17871 1.018646,0.30279 2.115347,0.7358 2.437114,0.96226 1.300549,0.9153 1.247947,3.55662 -0.09182,4.61048 -0.603112,0.4744 -1.075737,0.61331 -3.139046,0.92253 -0.291041,0.0436 -1.102177,-0.014 -1.802526,-0.12798 z m 4.247073,-1.21183 c 1.544587,-1.14997 1.445696,-3.04544 -0.200875,-3.85023 -0.506415,-0.24751 -1.63513,-0.66423 -2.508255,-0.92604 -1.382583,-0.41456 -1.598099,-0.56779 -1.669621,-1.18704 -0.158914,-1.37593 1.647118,-1.87898 4.080581,-1.1366 0.420436,0.12827 0.593511,0.0381 0.698699,-0.36419 0.181305,-0.6933 -0.903944,-1.09584 -2.950703,-1.09448 -2.463903,0.002 -3.651969,1.06697 -3.42076,3.06735 0.111791,0.96722 1.270756,1.75462 3.226943,2.1924 2.143556,0.47971 2.814857,1.31418 1.840796,2.28824 -0.356923,0.35692 -0.781145,0.41627 -2.182813,0.30539 -0.956884,-0.0757 -1.977914,-0.17725 -2.268955,-0.22568 -0.38213,-0.0636 -0.529167,0.059 -0.529167,0.4411 0,1.21983 4.410469,1.58695 5.88413,0.48978 z m 23.388735,1.19566 c -1.302255,-0.24008 -2.615541,-1.1392 -3.523686,-2.41244 -0.503005,-0.70521 -0.613762,-1.19821 -0.613762,-2.7319 0,-1.59879 0.106037,-2.03164 0.7279,-2.97134 1.901304,-2.87306 6.30088,-3.19399 8.78105,-0.64053 1.171858,1.20648 1.564912,2.36597 1.41497,4.17408 -0.272386,3.28461 -3.17909,5.24718 -6.786472,4.58213 z m 3.675708,-1.09012 c 3.084843,-1.55842 3.428561,-5.64037 0.65319,-7.75725 -1.353635,-1.03247 -3.77507,-1.21973 -5.354285,-0.41407 -2.046849,1.04422 -2.972086,3.01415 -2.428894,5.17136 0.755737,3.0013 4.232032,4.46396 7.129989,2.99996 z m -4.039518,-1.14178 c -1.655979,-0.89853 -2.08172,-3.71654 -0.781362,-5.1719 0.598654,-0.67001 1.003088,-0.85687 2.078088,-0.96017 0.77139,-0.0741 1.580379,0.003 1.916673,0.18317 1.42902,0.76479 2.040146,3.18 1.210566,4.78423 -0.748289,1.44703 -2.872774,2.00633 -4.423965,1.16467 z m 3.163903,-0.69261 c 1.96524,-1.631 0.962311,-4.83432 -1.513583,-4.83432 -2.707582,0 -3.528393,3.66676 -1.121153,5.00845 0.770117,0.42924 2.006158,0.34754 2.634736,-0.17413 z m 16.646268,2.90582 c -0.567941,-0.15465 -1.526751,-0.76341 -2.156944,-1.36946 -1.94909,-1.87442 -2.205352,-4.60025 -0.636135,-6.76649 1.015352,-1.40166 2.12299,-2.06203 3.812754,-2.27315 2.007127,-0.25077 3.500932,0.24551 4.797695,1.59393 1.917144,1.99351 2.100337,4.7803 0.45702,6.95243 -1.227299,1.62224 -4.064436,2.46453 -6.27439,1.86274 z m 4.782913,-1.43289 c 3.644304,-2.91191 1.745168,-8.30365 -2.924802,-8.30365 -3.573217,0 -5.9118,3.28482 -4.573937,6.42465 0.788694,1.85098 2.588604,2.87538 4.852905,2.76198 1.362332,-0.0682 1.815386,-0.21943 2.645834,-0.88298 z m -5.103601,-1.2262 c -2.327857,-2.13333 -1.011859,-5.75453 2.091277,-5.75453 2.240674,0 3.70381,2.07464 3.035729,4.30449 -0.707798,2.36242 -3.324021,3.10235 -5.127006,1.45004 z m 3.18471,-0.0787 c 1.723062,-0.81765 1.974541,-2.83863 0.532646,-4.28052 -0.821005,-0.82101 -1.047988,-0.91441 -1.890022,-0.77777 -1.449366,0.2352 -2.203997,1.08732 -2.203997,2.48872 0,1.47805 0.357531,2.13572 1.409895,2.5935 1.070875,0.46582 1.120574,0.46527 2.151478,-0.0239 z m 18.725955,2.80628 c -2.44449,-0.60769 -4.03464,-2.71031 -4.02673,-5.32446 0.005,-1.8138 0.77292,-3.2388 2.33579,-4.33723 1.01757,-0.71517 1.35602,-0.80476 3.04047,-0.80476 1.59838,0 2.09246,0.11582 3.15265,0.73902 3.43468,2.01898 3.26801,7.34669 -0.28657,9.1601 -1.19306,0.60865 -3.04616,0.85804 -4.21561,0.56733 z m 4.29995,-1.45013 c 1.57697,-1.20281 2.03083,-2.14507 1.9269,-4.00049 -0.15688,-2.80059 -1.90309,-4.35531 -4.88957,-4.35338 -5.05192,0.003 -6.62829,6.64562 -2.08186,8.77238 1.58352,0.74075 3.76158,0.56005 5.04453,-0.41851 z m -4.93369,-1.17178 c -0.73768,-0.65911 -0.85916,-0.9593 -0.96166,-2.37627 -0.11339,-1.56766 -0.0862,-1.65295 0.81371,-2.55287 0.76583,-0.76587 1.12584,-0.93106 2.02896,-0.93106 1.46428,0 2.49442,0.57366 3.02035,1.68198 0.53663,1.13086 0.54939,2.08711 0.041,3.07029 -1.02311,1.97848 -3.37733,2.50621 -4.94232,1.10789 z m 2.92122,-0.068 c 1.71159,-0.59667 2.19131,-3.14382 0.84554,-4.48959 -1.08098,-1.08098 -2.41179,-1.06849 -3.51327,0.033 -0.71946,0.71945 -0.79194,0.93453 -0.6724,1.99511 0.13843,1.22809 0.73203,2.12818 1.65178,2.50463 0.71349,0.29202 0.72795,0.29165 1.68835,-0.0431 z m -64.092104,2.22456 c -0.07608,-0.26185 -0.09914,-2.55968 -0.05124,-5.1063 l 0.08709,-4.6302 h 1.418331 1.41833 v 5.02708 5.02708 l -1.367086,0.0792 c -1.129654,0.0655 -1.39111,-0.003 -1.505418,-0.39687 z m 2.211046,-4.84171 v -4.49792 h -0.79375 -0.79375 v 4.49792 4.49791 h 0.79375 0.79375 z m 6.216838,4.70989 c -0.08252,-0.33487 -0.116081,-2.63291 -0.07458,-5.10677 l 0.07545,-4.49791 3.902604,-0.0732 3.902604,-0.0732 v 1.1977 1.19769 h -2.38125 -2.38125 v 0.91535 0.91534 l 2.182813,0.0768 2.182812,0.0769 0.0842,0.87718 c 0.131392,1.36883 -0.274926,1.63636 -2.48522,1.63636 h -1.939354 l -0.07877,1.65365 -0.07877,1.65364 -1.380625,0.0797 c -1.252448,0.0723 -1.394553,0.0231 -1.530662,-0.52916 z m 2.303349,-1.86562 0.07877,-1.65365 2.199777,-0.0771 c 2.098588,-0.0736 2.195952,-0.104 2.116667,-0.66146 -0.07602,-0.53445 -0.241205,-0.58786 -1.935194,-0.62558 -1.018646,-0.0227 -2.000912,-0.0525 -2.182813,-0.0662 -0.221477,-0.0167 -0.330729,-0.50561 -0.330729,-1.4801 v -1.45523 h 2.513542 c 2.504723,0 2.513541,-0.002 2.513541,-0.66146 v -0.66146 h -3.30729 -3.307291 v 4.49792 4.49791 h 0.781124 c 0.77339,0 0.781904,-0.0164 0.859896,-1.65364 z m 19.978816,2.2832 c -0.103722,-0.10372 -0.188587,-1.83022 -0.188587,-3.83666 v -3.64808 l -0.859896,-0.13907 c -0.472942,-0.0765 -1.157552,-0.17119 -1.521354,-0.21043 -0.583419,-0.0629 -0.661458,-0.19622 -0.661458,-1.12969 v -1.05833 h 4.497917 4.497916 v 1.05833 c 0,0.93347 -0.07804,1.06675 -0.661458,1.12969 -0.363802,0.0392 -1.04517,0.13333 -1.514155,0.20908 l -0.852696,0.13772 -0.07335,3.75967 -0.07334,3.75967 -1.200475,0.0784 c -0.660263,0.0431 -1.285341,-0.007 -1.389063,-0.11025 z m 2.192663,-4.46601 v -3.83651 h 1.455209 c 1.375833,0 1.455208,-0.0361 1.455208,-0.66146 v -0.66146 h -3.836458 -3.836459 v 0.66146 c 0,0.62538 0.07938,0.66146 1.455209,0.66146 h 1.455208 v 3.83646 3.83645 h 0.926042 0.926041 z m 18.302938,4.28959 c -0.3205,-0.38618 -4.280021,-9.41015 -4.280021,-9.75441 0,-0.12305 0.694057,-0.22373 1.542351,-0.22373 h 1.542352 l 1.235773,2.91501 c 0.679675,1.60325 1.237399,3.06177 1.239379,3.24115 0.002,0.17937 0.64041,-1.10261 1.41874,-2.84886 l 1.41514,-3.175 1.49167,-0.0793 c 0.82043,-0.0436 1.49255,0.0159 1.4936,0.13229 0.003,0.2946 -4.00056,9.39648 -4.31152,9.80279 -0.33235,0.43426 -2.425008,0.42684 -2.787464,-0.01 z m 4.350054,-5.0172 1.90893,-4.43177 h -0.78099 c -0.8471,0 -0.735,-0.18373 -2.74433,4.49792 -1.20559,2.80896 -1.47225,2.70833 -3.050753,-1.15124 -0.705327,-1.72458 -1.338303,-3.19149 -1.406613,-3.2598 -0.06831,-0.0683 -0.477639,-0.086 -0.909624,-0.0394 l -0.785426,0.0848 1.375105,3.175 c 2.721364,6.2834 2.379565,5.73238 3.497831,5.63882 l 0.98693,-0.0826 z m 14.30743,5.18838 c -0.10083,-0.10084 -0.18334,-2.42569 -0.18334,-5.16633 v -4.98299 h 1.45521 1.45521 v 3.82653 3.82653 l 2.44739,0.0761 2.4474,0.0761 v 1.19063 1.19062 l -3.71926,0.0731 c -2.0456,0.0402 -3.80177,-0.009 -3.90261,-0.11024 z m 6.91105,-1.08734 c -0.0733,-0.38469 -0.46815,-0.4854 -2.3345,-0.59531 l -2.24635,-0.13229 -0.0732,-3.9026 -0.0732,-3.90261 h -0.78667 -0.78668 v 4.49792 4.49791 h 3.1944 c 2.89948,0 3.18626,-0.0427 3.10624,-0.46302 z m 2.607,1.08039 c -0.097,-0.097 -0.17639,-1.88295 -0.17639,-3.96875 v -3.79237 h -1.45521 -1.45521 v -1.19062 -1.19063 h 4.49792 4.49792 v 1.19063 1.19062 h -1.45521 -1.45521 v 3.55024 c 0,1.95263 -0.0723,3.73857 -0.1606,3.96875 -0.1151,0.29994 -0.51488,0.41851 -1.41111,0.41851 -0.68778,0 -1.32989,-0.0794 -1.4269,-0.17638 z m 2.20486,-4.45382 v -3.83651 h 1.5875 c 1.51695,0 1.5875,-0.0294 1.5875,-0.66146 v -0.66146 h -3.96875 -3.96875 v 0.64826 c 0,0.60359 0.10482,0.65372 1.52136,0.7276 l 1.52135,0.0793 0.0734,3.77031 0.0734,3.77031 h 0.78649 0.78648 z m 2.52744,4.38811 c -0.0823,-0.13315 0.57546,-1.88932 1.46167,-3.9026 0.8862,-2.01328 1.85759,-4.23146 2.15864,-4.92929 l 0.54736,-1.26877 1.47629,0.0782 1.4763,0.0781 2.19152,4.84758 c 1.20534,2.66617 2.12321,4.95812 2.0397,5.09323 -0.0835,0.1351 -0.73917,0.24564 -1.45704,0.24564 -1.24909,0 -1.32524,-0.0427 -1.77083,-0.99218 -0.42365,-0.90279 -0.5723,-0.99979 -1.64977,-1.07649 -2.0874,-0.1486 -2.90954,0.13685 -3.33637,1.15839 -0.36047,0.86271 -0.44848,0.91028 -1.68409,0.91028 -0.71707,0 -1.37108,-0.10893 -1.45338,-0.24209 z m 10.5997,-0.54039 c -0.036,-0.079 -0.95048,-2.13944 -2.03221,-4.57885 l -1.9668,-4.4353 -1.01802,0.0697 c -0.9647,0.066 -1.04968,0.14589 -1.62245,1.52488 -0.33243,0.80037 -1.203,2.79466 -1.93458,4.43177 l -1.33017,2.97656 0.83594,-0.006 c 0.68106,-0.005 0.90948,-0.16399 1.23282,-0.8599 l 0.39687,-0.85417 2.43703,-0.0759 2.43702,-0.0759 0.54678,1.07177 c 0.46652,0.91445 0.65954,1.06319 1.31498,1.01324 0.42252,-0.0322 0.73877,-0.12313 0.70279,-0.20208 z m -6.64798,-3.19133 c -0.26052,-0.42154 1.27075,-3.97931 1.67856,-3.89997 0.41113,0.08 1.9667,3.57732 1.74831,3.93068 -0.20363,0.32948 -3.22097,0.30244 -3.42687,-0.0307 z m 7.92599,3.63419 c -0.0717,-0.18679 -0.0977,-2.47875 -0.0578,-5.09323 l 0.0725,-4.7536 1.38906,-0.08 c 0.76399,-0.044 1.39519,0.0156 1.40267,0.1323 0.0886,1.38185 0.12147,9.55604 0.0394,9.80341 -0.15028,0.45322 -2.6715,0.44534 -2.84581,-0.009 z m 2.2037,-4.8859 0.0724,-4.56406 h -0.8 -0.79999 v 4.45382 c 0,2.4496 0.0844,4.53822 0.18755,4.64137 0.10315,0.10315 0.43057,0.15276 0.7276,0.11024 0.51656,-0.0739 0.5432,-0.27582 0.61245,-4.64137 z m 4.69011,4.82426 c -2.01453,-1.08106 -3.04271,-2.69487 -3.04271,-4.77577 0,-3.23989 3.01237,-5.71682 6.45791,-5.31005 1.36304,0.16091 3.33167,1.24955 3.33167,1.84238 0,0.18899 -0.36151,0.68998 -0.80337,1.1133 -0.67515,0.64684 -0.87574,0.71798 -1.25677,0.44574 -2.16238,-1.54495 -4.71163,-0.55559 -4.64974,1.80456 0.0365,1.39212 0.6766,2.28715 1.87169,2.61714 0.81931,0.22622 1.1722,0.18336 2.07041,-0.25146 1.38007,-0.66808 1.48878,-0.66087 2.24979,0.14919 0.71543,0.76155 0.5899,1.16851 -0.64481,2.09035 -0.98204,0.7332 -4.41492,0.90203 -5.58407,0.27462 z m 4.55227,-0.53043 c 1.54388,-0.64508 1.77442,-0.92652 1.12916,-1.37849 -0.4813,-0.33711 -0.65555,-0.3326 -1.43483,0.0372 -3.11123,1.47637 -6.08297,-1.56668 -4.5067,-4.61484 0.75884,-1.46746 3.07429,-2.03968 4.73953,-1.1713 0.67432,0.35164 0.82481,0.35473 1.15579,0.0238 1.27017,-1.27017 -3.20277,-2.36833 -5.39987,-1.32574 -1.81355,0.86059 -2.96024,3.07066 -2.59722,5.00573 0.54801,2.92113 4.01185,4.63633 6.91414,3.42368 z m 3.16474,0.75531 c -0.097,-0.097 -0.17639,-2.41874 -0.17639,-5.15938 v -4.98299 h 3.96876 3.96875 v 1.19063 1.19062 h -2.51354 c -2.49371,0 -2.51355,0.005 -2.51355,0.65076 0,0.6325 0.0613,0.65292 2.18282,0.72761 l 2.18281,0.0768 v 1.19063 1.19062 l -2.18281,0.0768 c -2.11239,0.0744 -2.18282,0.0975 -2.18282,0.71802 0,0.6295 0.047,0.64256 2.57969,0.71691 l 2.57969,0.0757 0.0806,1.25677 0.0806,1.25677 h -3.93915 c -2.16653,0 -4.01852,-0.0794 -4.11554,-0.17638 z m 7.49653,-1.13695 c 0,-0.47569 -0.21795,-0.52599 -2.57968,-0.59531 l -2.57969,-0.0757 v -1.32292 -1.32291 l 2.18281,-0.0768 c 1.94906,-0.0686 2.18281,-0.13122 2.18281,-0.58461 0,-0.45339 -0.23375,-0.516 -2.18281,-0.58461 l -2.18281,-0.0769 -0.0806,-1.25677 -0.0806,-1.25685 h 2.52804 c 2.52019,0 2.52804,-0.002 2.52804,-0.66146 v -0.66146 h -3.29079 -3.29078 l -0.0827,2.84427 c -0.0455,1.56435 -0.0472,3.58841 -0.004,4.49792 l 0.0788,1.65364 h 3.42696 c 3.22951,0 3.42696,-0.0299 3.42696,-0.51958 z M 21.679637,133.37814 c -1.339104,-0.32767 -2.513542,-1.00537 -2.513542,-1.45042 0,-1.6513 0.973643,-2.23691 2.38125,-1.43225 0.783019,0.44761 2.803213,0.5198 3.056957,0.10924 0.288234,-0.46638 -0.252043,-0.79765 -2.166877,-1.32862 -2.418726,-0.67069 -3.139038,-1.39902 -3.139038,-3.17397 0,-1.17288 0.105177,-1.43258 0.849535,-2.09766 1.215295,-1.08587 2.748862,-1.44485 4.665943,-1.09222 0.850701,0.15648 1.713904,0.42325 1.918229,0.59283 0.47353,0.39299 0.476684,1.32145 0.0067,1.96423 -0.325707,0.44542 -0.477946,0.46503 -1.419759,0.18286 -1.396722,-0.41847 -2.578759,-0.40015 -2.948784,0.0457 -0.41828,0.504 -0.0019,0.7692 2.087533,1.32903 2.319986,0.62164 3.175,1.44632 3.175,3.06233 0,1.37957 -0.476665,2.21306 -1.596924,2.79237 -0.807524,0.41759 -3.448598,0.71863 -4.3562,0.49655 z m 3.833537,-1.02908 c 1.655533,-0.85611 2.093193,-2.60353 0.923576,-3.6875 -0.373507,-0.34615 -1.447871,-0.8142 -2.442337,-1.064 -2.048494,-0.51456 -2.447068,-0.77517 -2.447068,-1.60001 0,-1.18979 1.419088,-1.60819 3.770313,-1.11161 0.894477,0.18891 0.992187,0.15561 0.992187,-0.33816 0,-1.6221 -5.546703,-1.26177 -6.185077,0.40181 -0.322913,0.8415 -0.158358,2.14585 0.337921,2.67854 0.27772,0.2981 1.346816,0.75864 2.387978,1.02868 2.216573,0.57491 2.888668,1.13825 2.465647,2.06668 -0.46695,1.02484 -2.568631,1.15871 -4.327403,0.27563 -0.633299,-0.31798 -0.714487,-0.29467 -0.976477,0.28034 -0.261731,0.57444 -0.203671,0.66122 0.690727,1.03242 1.265954,0.52542 3.827573,0.54522 4.810013,0.0372 z m 91.465406,0.92007 c -3.16529,-0.95009 -4.65371,-5.1424 -2.84072,-8.00119 1.06821,-1.68439 2.52209,-2.42281 4.79547,-2.4356 1.45945,-0.008 1.91404,0.10597 2.82689,0.71006 l 1.08777,0.71986 0.0835,-0.58757 c 0.082,-0.57694 0.16358,-0.58887 4.5153,-0.6601 l 4.43177,-0.0725 v 1.16871 c 0,1.31212 -0.22273,1.48992 -1.86646,1.48992 h -1.02943 l -0.0734,3.77031 -0.0734,3.77031 h -1.4552 -1.45521 l -0.0732,-3.73814 -0.0732,-3.73813 -1.51429,-0.13355 c -1.26266,-0.11135 -1.61057,-0.0456 -2.09378,0.39596 l -0.57949,0.52951 -1.15769,-0.56043 c -1.38312,-0.66956 -1.58316,-0.68073 -2.6999,-0.1508 -1.61872,0.76812 -1.95171,2.74227 -0.69904,4.14425 0.62403,0.69841 0.96469,0.85805 1.83095,0.85805 0.63697,0 1.26703,-0.18349 1.56926,-0.457 0.71896,-0.65065 1.18157,-0.57089 2.06747,0.35644 l 0.7771,0.81345 -0.84579,0.75772 c -1.3199,1.18245 -3.57128,1.61599 -5.45526,1.0505 z m 4.01836,-0.90413 c 1.13744,-0.5882 1.4461,-1.06905 0.95033,-1.4805 -0.34084,-0.28287 -0.57371,-0.26592 -1.33515,0.0972 -1.14355,0.54532 -2.28425,0.56077 -3.28269,0.0444 -1.147,-0.59314 -1.59042,-1.40499 -1.59042,-2.91192 0,-0.78376 0.17096,-1.58154 0.41294,-1.92702 0.90812,-1.29652 2.9666,-1.75332 4.43943,-0.98515 0.95581,0.49851 2.01252,0.093 1.46784,-0.56332 -0.96867,-1.16717 -3.72138,-1.5339 -5.4295,-0.72334 -1.28879,0.61156 -2.42879,2.10114 -2.6288,3.43488 -0.3064,2.04322 0.84134,4.20553 2.66413,5.01915 1.05502,0.47091 3.41736,0.4685 4.33189,-0.004 z m 7.23656,-3.52318 0.0732,-3.9026 1.3178,-0.0831 c 1.3393,-0.0845 1.78484,-0.37886 1.53983,-1.01735 -0.10477,-0.27302 -0.98276,-0.35472 -3.81198,-0.35472 h -3.67586 v 0.64763 c 0,0.59472 0.11348,0.65416 1.38907,0.7276 l 1.38906,0.08 0.0732,3.9026 0.0732,3.90261 h 0.7796 0.7796 z m 22.82739,4.56632 c -0.14552,-0.0486 -0.59501,-0.16123 -0.99886,-0.25041 -1.08591,-0.2398 -2.74415,-1.87072 -3.25072,-3.19715 -0.46125,-1.20776 -0.36845,-3.10316 0.20698,-4.22761 0.40509,-0.79159 1.57448,-1.98667 2.32281,-2.37385 0.97458,-0.50424 3.17699,-0.72406 4.20643,-0.41984 1.22507,0.36203 2.66872,1.38037 2.67093,1.88403 0.001,0.2273 -0.36115,0.68161 -0.80477,1.00959 l -0.80656,0.59632 -1.17402,-0.56833 c -1.01827,-0.49294 -1.29862,-0.52721 -2.11322,-0.25837 -2.58996,0.85476 -2.36237,4.68112 0.30822,5.18213 0.64054,0.12016 1.13632,0.0134 1.82489,-0.39283 1.19785,-0.70674 1.48345,-0.69963 2.19198,0.0545 0.7432,0.79111 0.72557,1.00131 -0.15232,1.81568 -1.08609,1.00751 -3.20474,1.5554 -4.43177,1.14609 z m 3.20543,-1.09276 c 1.15596,-0.54855 1.32564,-0.84181 0.7944,-1.37305 -0.39481,-0.39482 -0.48863,-0.39282 -1.1966,0.0254 -1.56447,0.92415 -3.88092,0.3638 -4.65084,-1.12505 -1.58831,-3.07145 1.57891,-6.21444 4.65788,-4.62225 0.6235,0.32243 0.88284,0.34443 1.17748,0.0999 0.58508,-0.48557 0.46231,-0.72415 -0.66992,-1.30177 -2.14796,-1.0958 -5.09187,-0.46252 -6.40441,1.3777 -0.89062,1.24869 -0.89115,4.1865 -0.001,5.43455 1.25868,1.76471 4.22698,2.46496 6.29298,1.48458 z M 4.2927311,129.70172 c -0.03118,-1.96453 -0.06095,-4.25649 -0.06614,-5.09323 l -0.0094,-1.52136 h 1.455209 1.455208 l 0.07186,5.09323 0.07186,5.09323 h -1.460923 -1.460921 z m 2.173365,-1.5875 v -4.63021 h -0.79375 -0.79375 v 4.63021 4.63021 h 0.79375 0.79375 z m 2.1771,0.0661 0.07186,-5.09323 1.201161,-0.0784 1.2011579,-0.0784 2.029968,2.53257 2.029968,2.53258 0.07616,-2.45421 0.07616,-2.4542 1.389063,-0.08 1.389062,-0.08 v 5.1877 5.18769 l -1.246846,-0.0806 c -1.226325,-0.0793 -1.279665,-0.12133 -3.241146,-2.55299 l -1.994299,-2.47234 -0.07573,2.53849 -0.07573,2.53849 h -1.45134 -1.4513429 z m 2.3208159,1.78594 c 0,-2.22588 0.07482,-2.77812 0.376396,-2.77812 0.207018,0 1.367878,1.24947 2.579688,2.7766 1.845858,2.32617 2.322343,2.77686 2.937142,2.77813 l 0.733854,0.002 -0.0724,-4.56407 -0.07239,-4.56406 -0.718484,-0.0828 -0.718484,-0.0828 -0.07527,2.83944 c -0.04522,1.70585 -0.187614,2.87668 -0.35668,2.93272 -0.154776,0.0513 -1.325131,-1.21893 -2.60079,-2.82275 -1.80516,-2.26953 -2.461348,-2.91602 -2.959733,-2.91602 H 9.3765061 v 4.63021 4.63021 h 0.7937499 0.79375 z m 19.579167,-0.52917 v -3.83645 h -1.290521 c -1.556081,0 -1.921981,-0.35764 -1.708955,-1.67038 l 0.158295,-0.97546 h 4.477795 4.477796 l -0.08064,1.25677 -0.08064,1.25677 -1.521355,0.0793 -1.521354,0.0794 v 3.82326 3.82325 H 31.998388 30.54318 Z m 2.440323,-0.59531 0.07322,-3.9026 1.537963,-0.0799 c 1.413388,-0.0734 1.531257,-0.12695 1.455208,-0.66146 -0.08042,-0.56519 -0.192908,-0.58368 -3.985358,-0.65483 l -3.902604,-0.0732 v 0.66853 c 0,0.63235 0.07724,0.66854 1.4269,0.66854 1.057072,0 1.468525,0.10847 1.5875,0.41851 0.08833,0.23018 0.1606,2.01612 0.1606,3.96875 v 3.55024 h 0.786677 0.786675 z m 2.319049,4.10104 c -0.0016,-0.1819 0.970434,-2.50362 2.160337,-5.15937 l 2.163463,-4.82865 h 1.372441 1.372442 l 2.288056,4.90927 c 1.258429,2.70009 2.288055,5.02181 2.288055,5.15937 0,0.13756 -0.705141,0.25011 -1.566981,0.25011 -1.548053,0 -1.570575,-0.0109 -1.86445,-0.90134 -0.275154,-0.83372 -0.390816,-0.90815 -1.541873,-0.99219 -2.391748,-0.17461 -2.933297,-0.0155 -3.351135,0.98452 -0.368038,0.88084 -0.425323,0.90901 -1.848517,0.90901 -0.996913,0 -1.469716,-0.10624 -1.471838,-0.33073 z m 2.812124,-1.25677 0.423461,-1.05833 h 2.506096 2.506099 l 0.415726,1.05833 c 0.367798,0.93633 0.516176,1.05834 1.287071,1.05834 h 0.871347 l -0.624199,-1.38907 c -3.536014,-7.86885 -3.459287,-7.73331 -4.425445,-7.81801 l -0.90057,-0.079 -1.888887,4.18 c -2.532256,5.60373 -2.394006,5.10604 -1.41836,5.10604 0.7146,0 0.88051,-0.14074 1.247661,-1.05834 z m 1.273585,-2.46624 c -0.156442,-0.40768 1.343817,-3.88376 1.67621,-3.88376 0.304887,0 1.938226,3.7157 1.760061,4.00398 -0.237524,0.38432 -3.283553,0.27776 -3.436271,-0.12022 z m 7.823669,-1.11375 v -5.17891 l 1.389062,0.08 1.389063,0.08 0.07341,3.77032 0.07341,3.77031 h 2.188778 c 1.203828,0 2.303198,0.11442 2.443046,0.25427 0.162637,0.16263 0.907497,-1.21992 2.066909,-3.83646 l 1.81264,-4.09073 h 1.37287 1.372867 l 0.614635,1.25677 c 1.347806,2.75592 3.724143,8.28189 3.724143,8.66018 0,0.30926 -0.325898,0.4018 -1.415026,0.4018 -1.400625,0 -1.420001,-0.011 -1.904072,-1.08451 -0.466413,-1.03432 -0.532564,-1.07732 -1.429247,-0.92896 -0.517107,0.0856 -1.428988,0.15687 -2.026402,0.15848 -0.997582,0.003 -1.106307,0.0731 -1.332613,0.8628 l -0.246412,0.8599 -5.083529,0.0719 -5.083532,0.0719 z m 6.98401,4.21757 c 0.288613,-0.75211 -0.100772,-0.90216 -2.34111,-0.90216 -1.766628,0 -2.236965,-0.0832 -2.365634,-0.41852 -0.08833,-0.23018 -0.1606,-2.01612 -0.1606,-3.96875 v -3.55023 h -0.79375 -0.79375 v 4.63021 4.63021 h 3.146693 c 2.632347,0 3.173084,-0.0688 3.308151,-0.42076 z m 2.938946,-0.63758 0.309507,-0.92604 2.512423,-0.0752 2.51242,-0.0752 0.481322,1.06739 c 0.420597,0.93271 0.591055,1.06738 1.351116,1.06738 h 0.869796 l -2.100604,-4.53258 c -1.155332,-2.49292 -2.100603,-4.57651 -2.100603,-4.63021 0,-0.0537 -0.397608,-0.0976 -0.883571,-0.0976 -0.704554,0 -0.952905,0.14742 -1.225764,0.7276 -0.72131,1.53373 -2.71833,6.07605 -3.206361,7.29302 l -0.510797,1.27374 0.840803,-0.0831 c 0.695691,-0.0688 0.894226,-0.24294 1.150313,-1.00916 z m 1.317086,-2.38893 c -0.233519,-0.37784 1.206852,-3.96107 1.592249,-3.96107 0.385397,0 1.825768,3.58323 1.592249,3.96107 -0.09255,0.14974 -0.809061,0.27227 -1.592249,0.27227 -0.783188,0 -1.499701,-0.12253 -1.592249,-0.27227 z m 9.309264,3.80004 c -0.09701,-0.097 -0.17639,-1.8172 -0.17639,-3.82263 v -3.64624 l -1.389063,-0.08 -1.389062,-0.08 -0.08064,-1.25677 -0.08064,-1.25677 h 4.52691 4.52691 l -0.08064,1.25677 -0.08064,1.25677 -1.521354,0.0793 -1.521355,0.0794 v 3.82326 3.82325 h -1.278818 c -0.703352,0 -1.358196,-0.0794 -1.455208,-0.17639 z m 2.263933,-4.25538 0.07322,-3.9026 1.521354,-0.0794 c 1.416534,-0.0739 1.521354,-0.12402 1.521354,-0.72761 v -0.64825 h -3.96875 -3.96875 v 0.64825 c 0,0.60359 0.10482,0.65373 1.521354,0.72761 l 1.521354,0.0794 0.07322,3.9026 0.07322,3.90261 h 0.779603 0.779603 z m 4.29191,4.09215 c -0.07168,-0.1868 -0.09771,-2.47875 -0.05784,-5.09323 l 0.07249,-4.75361 1.389062,-0.08 1.389063,-0.08 v 5.1732 5.1732 h -1.33122 c -0.839496,0 -1.37936,-0.12545 -1.461547,-0.33962 z m 2.2636,-4.81975 v -4.63021 h -0.65215 c -0.358683,0 -0.753928,0.20836 -0.878327,0.46302 -0.124396,0.25466 -0.175395,2.33825 -0.113329,4.63021 l 0.112848,4.16719 h 0.765479 0.765479 z m 2.116667,0 v -5.15938 h 1.455208 1.455208 v 5.15938 5.15937 h -1.455208 -1.455208 z m 2.205966,4.16718 c 0.06873,-0.25466 0.133636,-2.33825 0.144237,-4.6302 l 0.01928,-4.16719 h -0.92016 -0.920158 v 4.63021 4.63021 h 0.77592 c 0.51498,0 0.817944,-0.15572 0.900881,-0.46303 z m 6.381079,0.65967 c -0.0732,-0.1907 -0.10044,-2.48585 -0.0606,-5.10033 l 0.0725,-4.75361 3.9026,-0.0732 3.9026,-0.0732 v 1.1977 1.1977 h -2.51354 c -2.50472,0 -2.51354,0.002 -2.51354,0.66146 0,0.64182 0.0544,0.66146 1.83044,0.66146 2.50569,0 2.66748,0.09 2.66748,1.48351 v 1.16232 h -2.24896 -2.24896 v 0.83292 0.83291 l 2.33241,-0.15111 c 1.28283,-0.0831 2.48169,-0.0589 2.66414,0.0539 0.2008,0.1241 0.2984,0.61213 0.24728,1.23643 l -0.0845,1.0314 -3.90818,0.0733 c -3.03159,0.0568 -3.93802,-0.005 -4.04124,-0.27348 z m 7.28796,-0.8581 c 0,-0.65861 -0.0107,-0.66146 -2.48524,-0.66146 -2.68792,0 -2.80643,-0.0657 -2.80643,-1.55623 0,-1.13343 0.43994,-1.35419 2.69875,-1.35419 1.88736,0 2.06375,-0.0452 2.06375,-0.52916 0,-0.48757 -0.17639,-0.52917 -2.24392,-0.52917 -2.17285,0 -2.24917,-0.021 -2.40993,-0.66146 -0.0913,-0.3638 -0.0913,-0.95911 0,-1.32292 0.16248,-0.64737 0.21944,-0.66145 2.67451,-0.66145 2.50725,0 2.50851,-2.7e-4 2.50851,-0.66937 v -0.66936 l -3.37344,0.074 -3.37344,0.074 -0.0731,4.22271 c -0.0402,2.32249 -0.0142,4.37632 0.0578,4.56407 0.0973,0.25361 0.98316,0.34135 3.44658,0.34135 h 3.3156 z m 1.8176,-0.0661 c -0.019,-0.69122 -0.0765,-2.74505 -0.12792,-4.56406 -0.1293,-4.57648 -0.14088,-4.54346 1.5599,-4.44531 l 1.38062,0.0797 0.0733,3.76012 0.0734,3.76012 2.30791,0.0763 2.3079,0.0763 0.0806,1.25677 0.0806,1.25677 h -3.85096 -3.85095 z m 6.91364,0.0764 c 0,-0.63639 -0.0525,-0.65289 -2.3151,-0.72761 l -2.3151,-0.0764 -0.0733,-3.91949 -0.0733,-3.91949 -0.72044,0.083 -0.72043,0.083 -0.0731,4.22271 c -0.0402,2.32249 -0.0142,4.37632 0.0578,4.56407 0.0965,0.25143 0.93463,0.34135 3.182,0.34135 h 3.05101 z m 1.4433,0.8478 c -0.0732,-0.1907 -0.10044,-2.48585 -0.0606,-5.10033 l 0.0725,-4.75361 3.9026,-0.0732 3.9026,-0.0732 v 1.1977 c 0,0.76765 -0.11875,1.20721 -0.33072,1.22418 -0.18191,0.0145 -1.32191,0.004 -2.53335,-0.0231 l -2.20262,-0.0496 0.0859,0.75074 0.0859,0.75073 h 2.11666 2.11667 v 1.19063 1.19062 l -2.18281,0.0769 -2.18281,0.0768 v 0.80328 c 0,0.76001 0.0535,0.80082 0.99218,0.75742 0.54571,-0.0252 1.74318,-0.0343 2.66105,-0.0202 l 1.66886,0.0256 -0.0814,1.12448 -0.0814,1.12447 -3.90818,0.0733 c -3.0316,0.0568 -3.93803,-0.005 -4.04124,-0.27347 z m 7.50479,-0.92425 c 0.0829,-0.58372 0.0324,-0.59531 -2.59351,-0.59531 h -2.67806 l 0.08,-1.38906 0.08,-1.38907 2.18281,-0.0768 c 1.96526,-0.0692 2.18281,-0.12852 2.18281,-0.59531 0,-0.47424 -0.19186,-0.51847 -2.24896,-0.51847 h -2.24895 v -1.32292 -1.32291 h 2.51354 c 2.50472,0 2.51354,-0.002 2.51354,-0.66146 v -0.66146 h -3.30729 -3.30729 v 4.63811 4.63811 l 3.37343,-0.074 c 3.27118,-0.0718 3.376,-0.0921 3.45799,-0.66936 z m 20.27373,0.91715 c -0.0717,-0.1868 -0.0977,-2.47875 -0.0578,-5.09323 l 0.0725,-4.75361 2.77813,-0.0764 c 4.50955,-0.12411 6.08541,0.87904 6.08541,3.87382 0,1.11887 -0.13265,1.50212 -0.76477,2.20959 l -0.76478,0.85593 0.89707,1.40234 c 0.49339,0.77129 0.89707,1.52503 0.89707,1.67499 0,0.16442 -0.59566,0.24115 -1.5006,0.1933 -1.44613,-0.0765 -1.53087,-0.12256 -2.33516,-1.26997 -0.6465,-0.92233 -1.02382,-1.20931 -1.6744,-1.27354 l -0.83985,-0.083 v 1.33968 1.33968 h -1.33122 c -0.8395,0 -1.37936,-0.12545 -1.46155,-0.33962 z m 2.2636,-1.51246 v -1.32292 h 1.32536 c 1.30552,0 1.33756,0.0198 2.13937,1.32292 0.72082,1.17149 0.91771,1.32292 1.72004,1.32292 h 0.90605 l -0.96257,-1.44975 -0.96258,-1.44974 0.81243,-0.75892 c 0.93421,-0.87269 1.23576,-1.79169 1.0001,-3.04789 -0.33368,-1.77863 -2.00052,-2.55012 -5.51518,-2.55265 l -2.05052,-10e-4 v 4.63021 4.63021 h 0.79375 c 0.77611,0 0.79375,-0.0294 0.79375,-1.32292 z m 0.10969,-3.00619 c -0.0761,-0.1982 -0.10208,-1.0614 -0.0578,-1.91823 l 0.0804,-1.55787 1.52022,-0.0793 c 1.3271,-0.0692 1.60437,0.005 2.18281,0.58329 0.84045,0.84045 0.84541,1.85081 0.0132,2.68305 -0.53425,0.53425 -0.91113,0.64944 -2.12497,0.64944 -1.00105,0 -1.52001,-0.11588 -1.61382,-0.36036 z m 3.20798,-0.70659 c 0.46782,-0.38826 0.50505,-1.3545 0.069,-1.79055 -0.17463,-0.17463 -0.889,-0.3175 -1.5875,-0.3175 h -1.27 v 1.14652 c 0,0.63059 0.0893,1.237 0.19844,1.34756 0.27534,0.27895 2.12011,0.004 2.59006,-0.38603 z m 4.47824,5.23917 c -0.0746,-0.19446 -0.10305,-2.49268 -0.0632,-5.10716 l 0.0725,-4.75361 h 1.45521 1.45521 v 5.02709 5.02708 l -1.39202,0.0801 c -0.97683,0.0562 -1.43249,-0.0254 -1.5277,-0.27348 z m 2.25826,-4.83369 v -4.63021 h -0.79375 -0.79375 v 4.63021 4.63021 h 0.79375 0.79375 z m 12.28848,4.81975 c -0.0717,-0.1868 -0.0977,-2.47875 -0.0578,-5.09323 l 0.0725,-4.75361 3.9026,-0.0732 3.9026,-0.0732 v 1.18777 1.18777 l -2.44739,0.0761 c -2.41388,0.075 -2.4474,0.0851 -2.4474,0.73753 0,0.65043 0.0353,0.66146 2.11667,0.66146 h 2.11666 v 1.19063 1.19062 l -2.19932,0.0771 -2.19933,0.0771 0.0827,0.71663 c 0.0823,0.71315 0.0936,0.71682 2.33162,0.75282 1.23693,0.0199 2.39779,0.0497 2.57969,0.0661 0.21113,0.0191 0.33073,0.46045 0.33073,1.22059 v 1.19062 h -3.97706 c -2.99312,0 -4.00929,-0.084 -4.10738,-0.33962 z m 7.55527,-0.84142 c 0,-0.64303 -0.035,-0.65291 -2.57969,-0.72761 l -2.57968,-0.0757 v -1.32292 -1.32292 l 2.18281,-0.0768 c 1.96527,-0.0692 2.18281,-0.12852 2.18281,-0.59531 0,-0.4745 -0.19196,-0.51847 -2.26345,-0.51847 h -2.26346 l 0.0806,-1.25677 0.0807,-1.25677 2.44739,-0.0761 c 2.40363,-0.0747 2.4474,-0.0877 2.4474,-0.7276 V 123.484 h -3.30729 -3.3073 v 4.63021 4.63021 h 3.43959 3.43958 z M 79.88797,114.76647 C 61.96872,112.95726 46.088804,102.05705 37.819004,85.889712 29.506554,69.638988 30.019923,50.305276 39.186796,34.378061 52.375489,11.46303 80.276476,1.8554171 104.71887,11.812311 c 13.91435,5.668172 25.12343,17.678427 30.03807,32.185058 2.98689,8.81644 3.69429,19.493467 1.87247,28.261674 -4.41071,21.228193 -21.36999,37.938587 -42.45394,41.830917 -4.08832,0.75475 -10.50387,1.05852 -14.2875,0.67651 z m 13.49843,-1.154 c 7.06539,-1.33532 13.61923,-3.91819 19.33118,-7.61842 9.54551,-6.183622 17.44113,-15.971972 20.99996,-26.034044 2.3668,-6.69177 3.25998,-11.731607 3.25889,-18.388542 C 136.97284,39.546415 123.80486,20.039109 103.51121,11.995403 98.08842,9.8459938 91.08688,8.5729009 84.78276,8.5899982 60.882661,8.6548159 40.587193,24.468563 34.379373,47.863121 c -1.192004,4.492141 -1.501672,6.780589 -1.640166,12.120843 -0.250359,9.653836 1.341504,16.902007 5.552078,25.280054 3.901554,7.763171 9.578948,14.332161 16.876453,19.526782 6.846268,4.87342 14.746401,7.95864 23.42289,9.14729 2.674659,0.36641 12.249002,0.15571 14.795772,-0.32562 z M 78.204415,112.05912 C 75.137768,111.67495 69.463008,110.14643 66.234763,108.83506 56.905135,105.04518 48.346626,97.927532 42.649454,89.220422 35.021942,77.563129 32.60613,63.407318 35.853858,49.400631 37.134254,43.878586 39.818529,37.762248 43.120497,32.843004 55.057314,15.059633 75.801147,6.9207182 96.72952,11.809319 c 13.89113,3.244792 26.27776,13.268725 33.02247,26.723573 3.20827,6.400096 4.76839,12.314362 5.30958,20.128156 1.18453,17.10246 -6.76102,33.761102 -21.13589,44.313532 -6.21914,4.5654 -13.51652,7.6018 -21.33771,8.8785 -3.46432,0.56551 -10.688159,0.66898 -14.383555,0.20604 z m 12.409235,-0.59678 c 19.83925,-2.48559 36.46073,-16.801164 42.05617,-36.221694 1.21719,-4.224594 1.64008,-7.089714 1.78392,-12.086169 0.32135,-11.162924 -2.4596,-20.860231 -8.62046,-30.060011 -5.7655,-8.60938 -13.87544,-15.089039 -23.72031,-18.95199 C 94.29356,11.07428 83.59859,10.203337 75.257761,11.955525 62.542858,14.626589 51.781047,21.62204 44.516497,31.938131 c -9.594184,13.624306 -12.058235,31.19447 -6.511986,46.434375 3.987763,10.957523 12.054057,20.742727 21.854392,26.511514 9.471472,5.57521 20.290488,7.88935 30.754747,6.57832 z M 54.723579,95.501945 53.107105,95.41481 52.939523,93.640533 C 52.847353,92.664681 52.771094,85.16899 52.77006,76.983443 l -0.0019,-14.882812 h -5.953125 c -5.50078,0 -5.951625,-0.03518 -5.933366,-0.463021 0.01786,-0.418708 4.277405,-4.349237 13.779806,-12.715451 l 3.398351,-2.992017 v -8.054337 -8.05434 h 5.283761 5.283763 l 0.07405,3.358941 0.07405,3.358943 4.208753,-3.821964 c 2.314813,-2.102078 4.815126,-4.346914 5.55625,-4.98852 3.14003,-2.718396 6.063297,-3.203123 12.202097,-2.023306 l 3.70983,0.712994 3.69799,4.515527 c 4.11107,5.019926 4.24439,5.206264 3.92385,5.484251 -0.12422,0.107731 -2.13085,0.0558 -4.45919,-0.1154 l -4.23333,-0.311269 -1.16173,1.015944 c -0.63895,0.558768 -1.24764,1.015942 -1.35265,1.015942 -0.105,0 -1.16067,-0.892969 -2.34592,-1.984375 -2.19526,-2.021446 -2.84885,-2.307225 -3.58747,-1.568601 -0.57383,0.573826 -0.52044,1.229328 0.17332,2.128232 0.71741,0.929526 0.59626,0.824071 3.84219,3.344598 2.45288,1.904708 4.03538,3.621656 4.03538,4.378221 0,0.17408 0.25045,0.316508 0.55654,0.316508 0.84544,0 4.00116,2.798654 10.42367,9.24424 l 5.82084,5.841743 0.0253,13.028364 c 0.0139,7.165599 -0.0328,13.540094 -0.10386,14.165543 -0.17526,1.543703 -0.90858,1.905526 -3.86201,1.905526 -1.99743,0 -2.29124,0.06302 -2.64441,0.567238 -1.09712,1.56637 -3.46663,2.032923 -5.1408,1.012216 -1.16077,-0.707699 -1.99133,-2.544548 -1.74479,-3.858731 0.40135,-2.139362 2.64245,-3.557611 4.71669,-2.984886 0.91579,0.252865 2.53621,1.62533 2.53621,2.148128 0,0.113091 0.71437,0.205619 1.5875,0.205619 h 1.5875 V 73.463453 61.013773 l -6.41615,-6.308135 -6.41614,-6.308135 -0.16597,1.265997 c -0.20865,1.59159 -1.39661,3.802348 -2.55732,4.7591 -0.48894,0.403029 -1.5645,1.072076 -2.39014,1.48677 -1.33266,0.669359 -1.7833,0.754433 -4.0147,0.757918 -2.15566,0.0034 -2.722455,-0.09368 -3.980822,-0.681556 -0.807005,-0.377016 -1.907315,-1.071835 -2.445133,-1.544048 l -0.977853,-0.858565 -0.823319,0.692777 c -0.452827,0.38103 -1.704002,1.484112 -2.780388,2.451296 l -1.957075,1.758519 v 2.737953 2.737953 l 1.190625,1.14082 c 1.118034,1.071266 1.190625,1.226368 1.190625,2.544006 0,1.706819 -0.685403,2.948175 -1.962385,3.554145 -2.64124,1.25335 -5.490046,-0.499488 -5.490046,-3.377967 0,-1.414388 0.55813,-2.572456 1.476735,-3.064076 0.683783,-0.36595 0.68403,-0.367361 0.68403,-3.937346 v -3.571262 l 1.653645,-1.610487 c 2.583564,-2.516134 6.850994,-6.238819 7.151751,-6.238819 0.149622,0 0.909199,0.70408 1.687944,1.564622 1.946241,2.150668 3.265526,2.75523 5.722336,2.622272 1.5613,-0.0845 2.11555,-0.24224 3.0482,-0.867543 3.16421,-2.121479 3.41718,-6.374788 0.53691,-9.027437 -0.48569,-0.447313 -1.74571,-1.440424 -2.80004,-2.206916 -4.261247,-3.097911 -5.425345,-5.706161 -3.765159,-8.436121 0.742039,-1.220179 1.999859,-1.90296 3.507809,-1.904137 1.6387,-0.0013 2.79118,0.496877 4.2408,1.833089 1.01909,0.939363 1.21595,1.028208 1.50544,0.679397 0.499,-0.601253 0.1371,-2.193769 -0.74667,-3.285691 -2.45806,-3.037012 -7.36359,-3.026537 -10.288485,0.02196 -1.736074,1.809443 -2.246794,5.252622 -1.155414,7.789598 0.639765,1.487178 2.637041,3.593835 5.290099,5.579811 2.2218,1.663158 2.72817,2.387833 2.86821,4.104759 0.0993,1.217054 0.0314,1.477309 -0.51921,1.991275 -0.34837,0.325184 -1.01463,0.667489 -1.48057,0.760677 l -0.84718,0.169448 v -1.457495 c 0,-1.629283 0.13051,-1.470215 -3.956513,-4.822266 -3.418769,-2.803967 -4.701844,-4.8778 -5.003842,-8.087699 l -0.16777,-1.783223 -4.553011,4.07352 c -2.504157,2.240433 -4.677047,4.073517 -4.828645,4.073517 -0.181454,0 -0.275635,-1.717717 -0.275635,-5.027083 v -5.027084 h -2.248959 -2.248958 v 6.972332 c 0,6.811536 -0.01373,6.991215 -0.595313,7.791236 -0.327421,0.4504 -3.25855,3.17668 -6.51362,6.0584 l -5.918306,5.23949 3.867785,0.07322 3.867787,0.07322 0.01072,13.288238 c 0.0059,7.308532 0.03565,14.836052 0.06615,16.727823 l 0.05544,3.439583 9.121409,0.06969 9.12141,0.06969 1.783493,-1.855626 c 0.980913,-1.020593 1.913879,-1.855626 2.073248,-1.855626 0.405548,0 0.04691,3.585745 -0.471035,4.709552 -0.24766,0.537355 -0.820803,1.092168 -1.490466,1.442804 -1.051881,0.550762 -1.400466,0.570434 -10.480778,0.591445 -5.16599,0.01196 -10.120122,-0.01749 -11.009183,-0.0654 z m 21.065042,-1.123013 c 1.227188,-0.626062 1.468724,-1.014153 1.728494,-2.77726 l 0.194913,-1.322916 -1.475877,1.389062 -1.47588,1.389063 -6.035109,0.01982 C 57.8346,93.112461 55.947004,93.090481 55.678891,92.924771 55.506685,92.818343 55.414012,86.981007 55.414012,76.240223 V 59.719381 h -4.233333 c -3.418753,0 -4.233334,-0.07011 -4.233334,-0.364374 0,-0.200406 3.034231,-3.069709 6.742737,-6.37623 l 6.742734,-6.011857 0.07029,-7.315957 0.07028,-7.315957 2.838267,-0.07504 2.838267,-0.07503 0.07215,4.807534 0.07215,4.807532 1.734301,-1.557496 c 3.870196,-3.475651 7.440293,-6.588945 7.637156,-6.659962 0.114924,-0.04146 0.274079,0.874773 0.353676,2.036075 0.254204,3.708741 1.737514,5.994548 6.149867,9.477052 2.55387,2.015675 2.77813,2.312151 2.77813,3.672813 0,1.328973 0.43319,1.521873 1.3527,0.602364 0.44071,-0.440711 0.52612,-0.76123 0.40378,-1.51515 -0.21739,-1.339612 -0.77797,-1.998818 -3.71087,-4.363759 -1.413449,-1.13973 -2.980055,-2.628011 -3.481348,-3.307292 -3.044748,-4.125812 -1.875668,-9.613138 2.537339,-11.909541 1.572609,-0.818341 1.855739,-0.87947 3.577279,-0.772356 3.4874,0.216987 6.09114,2.315969 6.46235,5.209564 0.0926,0.721997 0.085,1.2612 -0.0169,1.198226 -0.10189,-0.06297 -0.33239,0.06279 -0.51222,0.279464 -0.52112,0.627914 -1.1494,0.464015 -2.12849,-0.555266 -1.79075,-1.864267 -3.65087,-2.381204 -5.46711,-1.519345 -1.22841,0.582919 -1.92475,1.767599 -1.925988,3.276668 -0.0016,1.8502 1.019098,3.195005 4.389938,5.78434 3.22661,2.478545 4.2056,3.568292 4.63598,5.16048 0.42497,1.572131 0.12875,3.722249 -0.68148,4.946592 -1.41632,2.140207 -4.27214,3.418385 -6.79303,3.040356 -1.649706,-0.24739 -3.760505,-1.544722 -4.938943,-3.035559 l -1.012304,-1.280657 -3.555261,3.184429 c -4.967661,4.449506 -4.74589,4.069371 -4.74589,8.13484 v 3.356776 l -0.914998,0.697905 c -1.530778,1.167583 -1.597223,3.243384 -0.150138,4.69047 0.628039,0.628039 0.98265,0.759849 2.044245,0.759849 1.450899,0 2.272893,-0.457288 2.85886,-1.590421 0.782548,-1.513282 0.245118,-3.354888 -1.196615,-4.100436 l -0.789271,-0.408149 0.01982,-3.366643 0.01982,-3.366643 2.299354,-2.029753 c 1.264644,-1.116365 2.627164,-2.287612 3.027822,-2.60277 l 0.72847,-0.573013 0.974725,0.855821 c 0.536101,0.470701 1.734002,1.211127 2.662007,1.645393 1.427907,0.668197 2.009887,0.789575 3.785907,0.789575 1.8219,0 2.32316,-0.110538 3.80143,-0.838287 3.23115,-1.590691 4.85386,-4.362117 4.57659,-7.816345 -0.23973,-2.986537 -1.32351,-4.46274 -5.80495,-7.906837 -2.64143,-2.030002 -3.39099,-2.950797 -3.39099,-4.165669 0,-1.212493 0.64975,-1.832073 1.92129,-1.832073 0.93731,0 1.24553,0.193937 2.97794,1.873756 1.88571,1.828477 1.94769,1.86374 2.56476,1.45942 0.34779,-0.227883 0.89783,-0.773417 1.22231,-1.212294 0.52115,-0.704893 1.37289,-1.183675 0.98277,-0.552432 -0.0835,0.135046 0.0583,0.307295 0.31511,0.382778 0.79704,0.234305 7.21374,0.512509 7.21374,0.312762 0,-0.203179 -2.11896,-2.86234 -5.19796,-6.523125 l -1.91325,-2.274758 -2.99284,-0.613291 c -5.30817,-1.087752 -8.64156,-0.779918 -11.095386,1.024641 -1.042736,0.766837 -6.663446,5.762255 -9.642665,8.569939 -0.887868,0.836745 -1.753018,1.521354 -1.92256,1.521354 -0.219401,0 -0.308258,-1.029634 -0.308258,-3.571875 v -3.571875 h -4.630209 -4.630208 v 7.754639 c 0,5.80337 -0.08322,7.8603 -0.330729,8.174548 -0.181901,0.230952 -1.521354,1.466297 -2.976563,2.745211 -1.455208,1.278916 -4.362193,3.880916 -6.459963,5.782222 -2.097773,1.901307 -4.555434,4.111765 -5.461468,4.91213 l -1.647341,1.455208 5.726054,0.132292 5.726052,0.132292 0.143108,16.668749 c 0.07871,9.167813 0.168005,16.698516 0.198437,16.734896 0.03043,0.03638 4.763042,0.06615 10.516912,0.06615 9.945127,0 10.512872,-0.02617 11.500527,-0.530032 z M 69.481328,69.086948 c -0.881121,-0.617159 -0.717489,-2.185667 0.286329,-2.744671 0.653394,-0.363863 0.801815,-0.363863 1.455209,0 1.003818,0.559004 1.16745,2.127512 0.286329,2.744671 -0.33138,0.232109 -0.787651,0.422016 -1.013934,0.422016 -0.226282,0 -0.682553,-0.189907 -1.013933,-0.422016 z m 31.807062,20.957159 c 0.48301,-0.201816 1.14214,-0.737597 1.46472,-1.190625 l 0.58652,-0.823685 h 2.5749 c 1.64992,0 2.68895,-0.114054 2.8924,-0.3175 0.23878,-0.238778 0.3175,-3.718761 0.3175,-14.035674 V 59.958445 l -6.71905,-6.607998 C 98.70991,49.716049 95.37616,46.498462 94.99705,46.200252 L 94.30776,45.658058 V 46.746 c 0,1.071208 0.0997,1.18595 6.48229,7.459962 l 6.48229,6.372018 v 12.932159 12.932158 h -2.07419 c -1.95623,0 -2.09135,-0.03765 -2.37586,-0.662067 -0.38041,-0.834906 -1.80385,-1.716899 -2.77298,-1.718193 -1.72385,-0.0023 -3.09571,1.43098 -3.09571,3.23429 0,1.054436 0.56037,1.921759 1.68452,2.607234 0.98821,0.602583 1.48181,0.628758 2.65027,0.140546 z m -2.33152,-1.636334 c -0.49085,-0.49085 -0.55114,-1.98886 -0.0983,-2.441726 0.5446,-0.544602 1.98639,-0.385111 2.44562,0.270539 0.55435,0.791443 0.5184,1.422104 -0.11729,2.057795 -0.63417,0.634171 -1.65725,0.686194 -2.23006,0.113392 z m -17.512679,6.979748 c -0.07131,-0.11538 -0.02868,-0.390202 0.09472,-0.610714 0.123405,-0.220512 4.416099,-4.60965 9.539319,-9.753637 l 9.31495,-9.352706 v -4.614553 -4.614552 l -1.05789,-1.033 c -0.9318,-0.909883 -1.19196,-1.025472 -2.18281,-0.969825 -2.1964,0.123346 -3.90416,-1.534927 -3.90206,-3.788984 0.002,-2.094854 1.55912,-3.576923 3.75618,-3.575013 2.21372,0.0019 3.7775,1.720067 3.61492,3.971753 -0.0631,0.873797 0.095,1.176753 1.30515,2.500823 l 1.37692,1.506577 v 5.970831 5.970828 l -7.72771,7.768757 -7.72772,7.768757 12.82095,-0.06872 12.82094,-0.06872 0.13229,-14.419791 0.1323,-14.419792 1.16042,-0.08312 c 0.63824,-0.04571 1.27004,0.0265 1.40401,0.160462 0.14329,0.143298 0.23192,6.386293 0.21527,15.164363 -0.03,15.819379 -0.0377,16.23599 -0.30569,16.503811 -0.25006,0.249928 -34.630612,0.33509 -34.784459,0.08616 z M 115.36727,94.35218 c 0.48088,-0.531204 0.50737,-1.226214 0.57679,-15.127552 0.0448,-8.972156 -0.024,-14.667529 -0.17906,-14.822593 -0.13851,-0.138507 -0.5582,-0.174932 -0.93266,-0.08095 l -0.68083,0.170876 v 14.158474 c 0,11.088467 -0.0717,14.183643 -0.33073,14.274569 -0.59527,0.20896 -26.39014,0.296664 -26.72314,0.09086 -0.40753,-0.25187 -0.26982,-0.402095 8.36767,-9.128135 3.76748,-3.806108 6.95145,-7.080327 7.07549,-7.276042 0.12404,-0.195715 0.22735,-2.800694 0.22958,-5.788842 l 0.004,-5.432997 -1.47555,-1.44617 c -1.39271,-1.364975 -1.468,-1.504799 -1.34111,-2.490404 0.26031,-2.021985 -0.89306,-3.562135 -2.83117,-3.780589 -1.05018,-0.118369 -1.272,-0.03983 -2.14373,0.759056 -2.40954,2.208172 -0.6121,5.863904 2.62487,5.338616 0.93547,-0.151804 1.05753,-0.08401 2.28269,1.267759 l 1.29438,1.428142 0.001,4.616746 0.001,4.616746 -5.76173,5.834296 c -4.3989,4.454179 -11.82811,12.030726 -13.00177,13.259499 -0.0606,0.06348 7.21349,0.115419 16.16472,0.115419 16.20798,0 16.27704,-0.0024 16.77899,-0.556784 z M 95.89526,61.836048 c -1.03389,-1.033894 -0.36111,-2.645834 1.10431,-2.645834 1.4201,0 2.09716,1.96206 0.95349,2.763123 -0.79145,0.554347 -1.42211,0.518401 -2.0578,-0.117289 z M 79.609191,90.741776 c 0.184127,-1.298686 0.992119,-4.8842 2.265702,-10.054166 l 0.733257,-2.976563 h -4.072071 c -3.708996,0 -4.070377,-0.04128 -4.053105,-0.46302 C 74.505124,76.707459 89.25306,57.00664 89.7437,56.86222 c 0.56836,-0.167302 0.38417,1.001712 -1.12363,7.13129 -0.7999,3.25178 -1.45475,6.128462 -1.45521,6.392627 -8e-4,0.423281 0.22687,0.475946 1.91738,0.443662 4.94096,-0.09436 6.01927,-0.0173 6.01927,0.430172 0,0.235453 -0.32742,0.810752 -0.7276,1.278448 -0.40018,0.467696 -2.09683,2.731191 -3.77031,5.029989 -1.67349,2.298798 -4.41193,6.044758 -6.08542,8.32436 -1.67349,2.2796 -3.340367,4.585153 -3.704169,5.123447 -0.955955,1.414466 -1.42899,1.306714 -1.20482,-0.274439 z m 4.120419,-4.828645 c 5.30747,-7.233571 7.45205,-10.139183 9.03291,-12.238297 0.84988,-1.128511 1.54524,-2.110777 1.54524,-2.182812 0,-0.07204 -1.71938,-0.130975 -3.82084,-0.130975 -2.10146,0 -3.88881,-0.109979 -3.97189,-0.244395 -0.0831,-0.134419 0.50225,-3.014723 1.30072,-6.400681 0.79847,-3.385958 1.41195,-6.1961 1.36328,-6.244765 -0.0487,-0.04866 -0.78984,0.83724 -1.64706,1.968675 -2.65645,3.506219 -3.07258,4.108447 -2.70655,3.916878 0.19482,-0.101959 0.0911,0.03331 -0.23054,0.300599 -0.32162,0.26729 -1.77664,2.093325 -3.233388,4.057856 -1.456745,1.964531 -3.384007,4.556472 -4.282805,5.759865 -0.898797,1.203397 -1.583705,2.238465 -1.522018,2.300153 0.06169,0.06169 1.677654,0.136133 3.591039,0.165436 1.913382,0.0293 3.620382,0.140729 3.793342,0.247624 0.23277,0.143859 -0.002,1.560147 -0.903219,5.451781 -0.669724,2.891587 -1.338125,5.673366 -1.485334,6.181728 -0.326564,1.127739 -0.349385,1.78938 -0.0498,1.443725 0.119822,-0.138244 1.571929,-2.096823 3.226903,-4.352395 z m -0.005,-3.856974 c 0,-0.03554 0.28658,-1.176552 0.63685,-2.53559 0.35026,-1.359037 0.70877,-2.794611 0.79667,-3.19016 l 0.15983,-0.719183 -3.108586,-0.07457 c -2.512422,-0.06027 -3.123144,-0.150681 -3.184506,-0.471443 -0.04176,-0.218281 0.671182,-1.410703 1.584304,-2.649828 0.913124,-1.239124 2.296098,-3.127375 3.073278,-4.196115 1.89933,-2.611876 2.19315,-2.288381 1.2695,1.397728 -0.384,1.532451 -0.69818,2.908961 -0.69818,3.058911 0,0.171982 1.17219,0.272637 3.175,0.272637 2.63001,0 3.175,0.06737 3.175,0.392475 0,0.617234 -6.01668,8.779748 -6.47165,8.779748 -0.22413,0 -0.40751,-0.02908 -0.40751,-0.06461 z m 4.11714,-5.486332 2.17828,-2.959819 -3.07862,-0.132292 c -3.62319,-0.155691 -3.51519,-0.02731 -2.70806,-3.219087 0.30088,-1.189821 0.50394,-2.206422 0.45125,-2.259116 -0.0527,-0.05269 -1.19017,1.426236 -2.527714,3.286511 l -2.431907,3.382317 2.992001,0.132292 c 3.53264,0.156197 3.45813,0.05954 2.6092,3.38447 -0.64298,2.518294 -0.65435,2.767989 -0.0891,1.956599 0.23451,-0.336629 1.40661,-1.943973 2.60466,-3.571875 z M 70.087062,87.023423 c -0.442788,-0.278667 -1.011081,-0.821076 -1.262869,-1.205355 l -0.457798,-0.698687 h -3.651946 c -3.475238,0 -3.679783,-0.02963 -4.227235,-0.612365 L 59.911928,83.894651 V 69.447763 55.000876 l 2.711979,-2.502789 c 1.491589,-1.376535 3.561443,-3.230626 4.599678,-4.120203 1.863688,-1.59684 1.887456,-1.633529 1.868586,-2.884448 -0.06023,-3.992094 4.904888,-5.48619 6.970982,-2.097701 1.049732,1.721609 0.416687,4.088609 -1.398286,5.228294 -0.659945,0.414401 -1.170098,0.514855 -2.173816,0.428035 l -1.3115,-0.11344 -4.05697,3.600844 c -2.231332,1.980462 -4.113046,3.840586 -4.181584,4.133606 -0.06854,0.293021 -0.09351,6.128703 -0.05549,12.968182 l 0.06913,12.435416 2.673836,0.07498 2.673837,0.07498 0.706554,-0.926338 c 1.339847,-1.756632 3.883059,-1.906529 5.557269,-0.327546 1.604819,1.513538 1.620686,3.927959 0.03591,5.463987 -1.169286,1.133319 -3.222471,1.400114 -4.514977,0.586687 z m 3.754962,-0.763609 c 0.317018,-0.207719 0.778965,-0.804547 1.026543,-1.326282 0.945637,-1.992781 -0.656672,-4.312068 -2.979041,-4.312068 -1.073563,0 -1.321827,0.120084 -2.188014,1.058333 l -0.977049,1.058334 h -3.218066 -3.218069 l 0.06857,-13.418767 0.06857,-13.418765 4.286893,-3.863091 4.286895,-3.863088 1.551451,0.11222 c 1.445945,0.104592 1.606269,0.0574 2.35758,-0.693909 2.649088,-2.649088 -0.297436,-6.656766 -3.627937,-4.934495 -1.017252,0.526039 -1.575113,1.653754 -1.594628,3.223527 l -0.0158,1.26991 -4.245843,3.704166 c -2.335212,2.037292 -4.414774,3.955847 -4.621246,4.263459 -0.52895,0.788038 -0.420381,28.459774 0.113757,28.994819 0.235879,0.236281 1.532038,0.385178 4.144407,0.476097 l 3.801184,0.132292 0.595654,0.758753 c 1.124646,1.432592 2.903791,1.748536 4.384172,0.778555 z m -2.913655,-1.274291 c -1.055672,-1.055669 -0.486818,-2.816837 0.966094,-2.991025 0.855959,-0.102619 1.775798,0.762249 1.775798,1.669674 0,1.367777 -1.818912,2.244331 -2.741892,1.321351 z m 0.948682,-38.378019 c -0.748353,-0.524166 -0.777931,-1.779481 -0.05887,-2.49854 0.670317,-0.670316 1.077209,-0.666308 1.948693,0.01921 0.837785,0.659001 0.906384,1.623637 0.167974,2.362047 -0.635691,0.63569 -1.266352,0.671637 -2.057794,0.11729 z m 46.640089,15.228544 c -4.06311,-0.145111 -4.65438,-0.328467 -6.11301,-1.895655 -1.84537,-1.982714 -8.83595,-10.511047 -8.83595,-10.779633 0,-0.198292 1.45317,-0.289296 4.61954,-0.289296 h 4.61955 l 0.91606,0.992188 c 2.23385,2.419472 9.14309,11.088116 9.15085,11.481067 0.0121,0.61369 -0.21472,0.639268 -4.35704,0.491329 z m 3.57187,-0.739553 c 0,-0.115713 -2.05383,-2.70092 -4.56406,-5.744906 -2.97376,-3.606072 -4.79454,-5.597879 -5.22552,-5.716365 -0.3638,-0.100015 -2.30615,-0.193715 -4.31633,-0.208219 l -3.65487,-0.02637 2.12247,2.579688 c 4.81959,5.857808 7.08917,8.377591 7.96127,8.8389 0.75659,0.400214 1.52758,0.487662 4.29948,0.487662 1.85766,0 3.37756,-0.09467 3.37756,-0.210386 z m 6.02987,0.797872 -3.36283,-0.07397 -1.65961,-2.042695 c -0.91278,-1.123481 -3.12021,-3.801782 -4.90539,-5.951775 -1.78519,-2.149996 -3.24579,-4.084762 -3.24579,-4.299479 0,-0.324578 0.59345,-0.390398 3.51997,-0.390398 h 3.51998 l 0.81101,0.859896 c 2.13565,2.26437 9.34696,11.162305 9.34696,11.533087 0,0.401034 -0.46836,0.443553 -4.0243,0.365334 z m 3.06479,-0.906216 c -0.10834,-0.175303 -2.2595,-2.794678 -4.78036,-5.820834 l -4.58337,-5.502103 h -3.04977 c -2.82536,0 -3.031,0.03407 -2.79462,0.463021 0.14034,0.254662 2.23712,2.874037 4.65951,5.820833 l 4.40436,5.357813 h 3.17062 c 2.40546,0 3.12308,-0.07692 2.97363,-0.31873 z m -25.42482,-13.102286 -3.49787,-0.08798 -1.7938,-2.068283 c -4.17493,-4.813787 -6.55629,-7.791394 -6.55629,-8.197858 0,-0.485415 -0.23308,-0.478626 5.88705,-0.171529 l 3.77039,0.18919 4.10822,4.911675 c 2.25952,2.701422 4.06588,5.040527 4.01413,5.198012 -0.10565,0.321572 -0.92216,0.352788 -5.93183,0.226777 z m 4.49986,-1.369229 c -0.40557,-0.547974 -2.15266,-2.669426 -3.8824,-4.714343 l -3.14499,-3.718026 -4.08042,-0.191235 c -2.24423,-0.10518 -4.14508,-0.126572 -4.22411,-0.04754 -0.15907,0.15907 3.30306,4.537483 5.93979,7.511812 l 1.69303,1.909797 2.95168,0.07458 c 1.62342,0.04102 3.52164,0.09634 4.21825,0.122925 l 1.26657,0.04834 z m -0.85476,-3.261905 c -2.19103,-2.652639 -3.98369,-4.988719 -3.98369,-5.191284 0,-0.305422 0.62114,-0.338037 3.63802,-0.191021 l 3.63802,0.177284 1.16339,1.24369 c 2.15371,2.302367 6.9064,8.1197 6.9064,8.453493 0,0.248891 -0.91367,0.330821 -3.68922,0.330821 h -3.68923 z m 10.40262,3.963088 c -0.31204,-0.523862 -5.42173,-6.567165 -6.48383,-7.668522 -0.93095,-0.965359 -1.0189,-0.996582 -2.80734,-0.996582 -1.01545,0 -2.42825,-0.07977 -3.13954,-0.177261 l -1.29325,-0.17726 0.7822,1.037156 c 0.43021,0.570436 2.13501,2.674266 3.78843,4.675177 l 3.00621,3.638021 h 3.17206 c 2.46633,0 3.12824,-0.07358 2.97506,-0.330729 z m -14.16887,-10.448372 -1.76693,-0.09213 -2.49454,-3.097197 c -1.37199,-1.703459 -3.04742,-3.764095 -3.72317,-4.579191 -1.20387,-1.452118 -1.49673,-2.089883 -0.95967,-2.089883 1.21784,0 7.15915,1.175697 7.78324,1.54019 0.43459,0.253809 1.43804,1.23149 2.22989,2.172621 0.79186,0.94113 2.046,2.412645 2.78699,3.270033 2.65966,3.077445 2.65953,3.087682 -0.0384,3.019501 -1.12778,-0.0285 -2.84564,-0.09328 -3.81745,-0.143946 z m 4.77535,-0.784921 c -0.22094,-0.260985 -1.50454,-1.810629 -2.85243,-3.443653 -1.3479,-1.633021 -2.82837,-3.202527 -3.28993,-3.487787 -0.50083,-0.309529 -2.08085,-0.718458 -3.91856,-1.014172 l -3.07936,-0.495514 0.96489,1.24044 c 0.53069,0.682244 2.07643,2.617211 3.43497,4.299929 2.78007,3.443452 2.15299,3.143769 6.9079,3.301273 2.12496,0.07039 2.21458,0.0508 1.83252,-0.400516 z"
       style="display:inline;mix-blend-mode:normal;fill:#88aa00;stroke:#000000;stroke-width:0.264583;stroke-opacity:1"
       id="path1" />
  </g>
</svg>
